# xmcd
#
# Track frame offsets:
#	151
#	12213
#	23499
#	36497
#	38873
#	49869
#	69274
#	82663
#	95512
#	116059
#	130248
#
# Disc length: 1904 seconds
#
# Revision: 0
# Processed by: cddbd v1.4PL0 Copyright (c) Steve Scherf et al.
# Submitted via: dBpowerAMP V4.0
#
DISCID=83076e0b
DTITLE=Prairie Rose Wranglers - Christmas at the Prairie Rose
DYEAR=1900
DGENRE=Country
TTITLE0=Cowboy Christmas
TTITLE1=Rudolph the Red-Nosed Reindeer
TTITLE2=Christmas in Kansas
TTITLE3=Good King Wenceslas
TTITLE4=Christmas for Cowboys
TTITLE5=The Old Cowboy
TTITLE6=I Want A Hat Like Gene's
TTITLE7=When It's Christmas On The Range
TTITLE8=What Child is This - Little Drummer Boy
TTITLE9=Everyday Is Christmas In The West
TTITLE10=Silent Night
EXTD=
EXTT0=
EXTT1=
EXTT2=
EXTT3=
EXTT4=
EXTT5=
EXTT6=
EXTT7=
EXTT8=
EXTT9=
EXTT10=
PLAYORDER=
